<?xml version="1.0" encoding="UTF-8"?>
<svg xmlns="http://www.w3.org/2000/svg" xmlns:xlink="http://www.w3.org/1999/xlink" width="62pt" height="62pt" viewBox="0 0 62 62">
<path fill-rule="nonzero" fill="rgb(32.940674%, 72.941589%, 85.098267%)" fill-opacity="1" d="M 8.097656 58.050781 L 19.097656 58.050781 L 19.097656 56.085938 L 8.097656 56.085938 Z M 8.097656 58.050781 "/>
<path fill-rule="nonzero" fill="rgb(32.940674%, 72.941589%, 85.098267%)" fill-opacity="1" d="M 20.203125 58.050781 L 28.417969 58.050781 L 28.417969 56.085938 L 20.203125 56.085938 Z M 20.203125 58.050781 "/>
<path fill-rule="nonzero" fill="rgb(32.940674%, 72.941589%, 85.098267%)" fill-opacity="1" d="M 17.285156 48.121094 L 24.046875 48.121094 L 24.046875 46.15625 L 17.285156 46.15625 Z M 17.285156 48.121094 "/>
<path fill-rule="nonzero" fill="rgb(32.940674%, 72.941589%, 85.098267%)" fill-opacity="1" d="M 25.058594 48.121094 L 28.417969 48.121094 L 28.417969 46.15625 L 25.058594 46.15625 Z M 25.058594 48.121094 "/>
<path fill-rule="nonzero" fill="rgb(32.940674%, 72.941589%, 85.098267%)" fill-opacity="1" d="M 20.203125 51.429688 L 28.417969 51.429688 L 28.417969 49.46875 L 20.203125 49.46875 Z M 20.203125 51.429688 "/>
<path fill-rule="nonzero" fill="rgb(32.940674%, 72.941589%, 85.098267%)" fill-opacity="1" d="M 13.976562 51.429688 L 19.097656 51.429688 L 19.097656 49.46875 L 13.976562 49.46875 Z M 13.976562 51.429688 "/>
<path fill-rule="nonzero" fill="rgb(32.940674%, 72.941589%, 85.098267%)" fill-opacity="1" d="M 21.671875 44.808594 L 28.417969 44.808594 L 28.417969 42.847656 L 21.671875 42.847656 Z M 21.671875 44.808594 "/>
<path fill-rule="nonzero" fill="rgb(32.940674%, 72.941589%, 85.098267%)" fill-opacity="1" d="M 25.058594 54.738281 L 28.417969 54.738281 L 28.417969 52.777344 L 25.058594 52.777344 Z M 25.058594 54.738281 "/>
<path fill-rule="nonzero" fill="rgb(32.940674%, 72.941589%, 85.098267%)" fill-opacity="1" d="M 11.769531 54.738281 L 15.128906 54.738281 L 15.128906 52.777344 L 11.769531 52.777344 Z M 11.769531 54.738281 "/>
<path fill-rule="nonzero" fill="rgb(32.940674%, 72.941589%, 85.098267%)" fill-opacity="1" d="M 16.128906 54.738281 L 23.941406 54.738281 L 23.941406 52.777344 L 16.128906 52.777344 Z M 16.128906 54.738281 "/>
<path fill-rule="nonzero" fill="rgb(32.940674%, 72.941589%, 85.098267%)" fill-opacity="1" d="M 52.449219 38.363281 L 34.125 25.234375 L 15.832031 38.34375 L 18.484375 38.34375 L 34.125 27.136719 L 49.796875 38.363281 "/>
<path fill-rule="nonzero" fill="rgb(32.940674%, 72.941589%, 85.098267%)" fill-opacity="1" d="M 34.128906 29.609375 L 21.671875 38.34375 L 24.363281 38.34375 L 34.121094 31.5 L 42.574219 37.558594 L 42.574219 58.050781 L 44.117188 58.050781 L 44.117188 36.765625 "/>
<path fill-rule="nonzero" fill="rgb(32.940674%, 72.941589%, 85.098267%)" fill-opacity="1" d="M 49.207031 13.972656 L 49.207031 33.511719 L 47.664062 32.402344 L 47.664062 14.800781 L 40.222656 9.839844 L 39.453125 10.355469 L 32.785156 14.800781 L 32.785156 23.660156 L 31.242188 24.769531 L 31.242188 13.972656 L 40.222656 7.988281 "/>
<path fill-rule="nonzero" fill="rgb(32.940674%, 72.941589%, 85.098267%)" fill-opacity="1" d="M 48.007812 19.585938 L 39.796875 14.109375 L 40.652344 12.824219 L 48.863281 18.300781 Z M 48.007812 19.585938 "/>
<path fill-rule="nonzero" fill="rgb(32.940674%, 72.941589%, 85.098267%)" fill-opacity="1" d="M 48.007812 23.320312 L 39.796875 17.84375 L 40.652344 16.558594 L 48.863281 22.035156 Z M 48.007812 23.320312 "/>
<path fill-rule="nonzero" fill="rgb(32.940674%, 72.941589%, 85.098267%)" fill-opacity="1" d="M 48.007812 27.050781 L 39.796875 21.578125 L 40.652344 20.292969 L 48.863281 25.769531 Z M 48.007812 27.050781 "/>
<path fill-rule="nonzero" fill="rgb(32.940674%, 72.941589%, 85.098267%)" fill-opacity="1" d="M 48.007812 30.785156 L 39.796875 25.308594 L 40.652344 24.027344 L 48.863281 29.5 Z M 48.007812 30.785156 "/>
<path fill-rule="nonzero" fill="rgb(32.940674%, 72.941589%, 85.098267%)" fill-opacity="1" d="M 40.996094 8.914062 L 40.996094 27.625 L 39.453125 26.519531 L 39.453125 8.914062 Z M 40.996094 8.914062 "/>
<path fill-rule="nonzero" fill="rgb(32.940674%, 72.941589%, 85.098267%)" fill-opacity="1" d="M 37.898438 13.613281 L 37.898438 25.40625 L 36.351562 24.300781 L 36.351562 14.644531 Z M 37.898438 13.613281 "/>
<path fill-rule="nonzero" fill="rgb(32.940674%, 72.941589%, 85.098267%)" fill-opacity="1" d="M 49.40625 60.066406 L 47.859375 60.066406 L 47.859375 38.667969 L 49.40625 39.703125 Z M 49.40625 60.066406 "/>
<path fill-rule="nonzero" fill="rgb(32.940674%, 72.941589%, 85.098267%)" fill-opacity="1" d="M 45.21875 60.066406 L 46.761719 60.066406 L 46.761719 46.019531 L 45.21875 46.019531 Z M 45.21875 60.066406 "/>
<path fill-rule="nonzero" fill="rgb(32.940674%, 72.941589%, 85.098267%)" fill-opacity="1" d="M 38.421875 41.777344 L 38.421875 45.792969 L 36.878906 47.4375 L 36.878906 41.777344 C 36.878906 40.246094 35.632812 39.007812 34.101562 39.007812 C 32.574219 39.007812 31.328125 40.246094 31.328125 41.777344 L 31.328125 58.050781 L 29.785156 58.050781 L 29.785156 41.777344 C 29.785156 39.398438 31.71875 37.464844 34.101562 37.464844 C 36.484375 37.464844 38.421875 39.398438 38.421875 41.777344 "/>
<path fill-rule="nonzero" fill="rgb(32.940674%, 72.941589%, 85.098267%)" fill-opacity="1" d="M 34.046875 47.140625 L 34.046875 50.359375 L 32.503906 51.964844 L 32.503906 47.140625 Z M 34.046875 47.140625 "/>
<path fill-rule="nonzero" fill="rgb(32.940674%, 72.941589%, 85.098267%)" fill-opacity="1" d="M 34.046875 52.066406 L 34.046875 58.050781 L 32.503906 58.050781 L 32.503906 53.671875 Z M 34.046875 52.066406 "/>
<path fill-rule="nonzero" fill="rgb(32.940674%, 72.941589%, 85.098267%)" fill-opacity="1" d="M 38.839844 47.078125 L 34.046875 52.066406 L 32.503906 53.675781 L 32.503906 55.125 L 32.894531 55.492188 L 34.046875 54.292969 L 40.984375 47.078125 "/>
<path fill-rule="nonzero" fill="rgb(32.940674%, 72.941589%, 85.098267%)" fill-opacity="1" d="M 40.621094 58.03125 L 35.183594 52.148438 L 34.066406 53.210938 L 38.519531 58.03125 Z M 40.621094 58.03125 "/>
<path fill-rule="nonzero" fill="rgb(32.940674%, 72.941589%, 85.098267%)" fill-opacity="1" d="M 8.097656 60.839844 L 58.460938 60.839844 L 58.460938 59.292969 L 8.097656 59.292969 Z M 8.097656 60.839844 "/>
</svg>
